<svg xmlns="http://www.w3.org/2000/svg" class="svg-icon-path-icon fill" viewBox="0 0 32 32" width="42" height="42"><path d="M26.624 13.152c-1.568-2.848-4.224-5.024-7.456-5.888 0.288-0.512 0.416-1.056 0.416-1.664 0-1.984-1.6-3.616-3.616-3.616-1.952 0-3.584 1.632-3.584 3.616 0 0.608 0.16 1.184 0.416 1.696-3.221 0.897-5.842 3.007-7.393 5.794l-0.031 0.062c-1.556 0.445-2.678 1.85-2.688 3.519v0.001c0 1.152 0.544 2.208 1.376 2.88 0.352 0.256 0.736 0.48 1.152 0.608h0.64l1.76 8.864c0.128 0.576 0.608 0.992 1.216 0.992h0.992v-5.984h1.12v5.984h4.48v-5.984h1.152v5.984h4.48v-5.984h1.12v5.984h1.6c0.576 0 1.088-0.416 1.184-0.992l1.76-8.864h0.064c0.442-0.141 0.825-0.348 1.159-0.614l-0.007 0.006c0.84-0.686 1.372-1.72 1.376-2.879v-0.001c0.032-1.664-1.12-3.104-2.688-3.52zM15.968 4.448c0.672 0 1.184 0.512 1.184 1.152s-0.512 1.152-1.184 1.152c-0.64 0-1.152-0.512-1.152-1.152s0.544-1.152 1.152-1.152zM25.6 17.696v0.032h-19.168v-0.032c-0.596-0.065-1.056-0.566-1.056-1.174 0-0.003 0-0.007 0-0.010v0.001c0-0.672 0.544-1.216 1.216-1.216 0.16 0 0.32 0.032 0.448 0.096 0.288-0.704 0.608-1.344 1.024-1.92 1.76-2.528 4.672-4.192 7.936-4.192s6.208 1.664 7.936 4.192c0.406 0.553 0.752 1.187 1.006 1.866l0.018 0.054c0.132-0.060 0.286-0.095 0.448-0.096h0c0.672 0 1.216 0.544 1.216 1.216 0 0.608-0.448 1.12-1.024 1.184z"></path></svg>