<svg xmlns="http://www.w3.org/2000/svg" class="svg-icon-path-icon fill" viewBox="0 0 32 32" width="37" height="37"><path d="M30.848 8c-0.896-1.536-2.784-2.368-5.472-2.368-0.768 0-1.632 0.096-2.528 0.224-1.376-3.584-3.456-5.856-5.856-5.856-0.704 0-1.376 0.224-2.048 0.608-0.351-0.241-0.785-0.384-1.252-0.384-0.010 0-0.020 0-0.029 0h0.001c-1.344 0-2.464 1.088-2.464 2.432 0 0.64 0.256 1.184 0.64 1.632-0.256 0.48-0.512 0.992-0.704 1.568-0.896-0.128-1.76-0.224-2.528-0.224-2.688 0-4.576 0.832-5.472 2.368-1.216 2.080-0.288 5.024 2.144 8-0.645 0.776-1.229 1.646-1.72 2.573l-0.040 0.083c-0.133-0.037-0.287-0.060-0.446-0.064l-0.002-0c-1.361 0.001-2.463 1.103-2.464 2.464v0c0 1.28 1.024 2.336 2.304 2.432 0.064 0.16 0.128 0.352 0.224 0.512 0.896 1.568 2.784 2.368 5.472 2.368 0.768 0 1.632-0.064 2.528-0.224 1.376 3.584 3.456 5.856 5.856 5.856s4.512-2.272 5.856-5.856c0.896 0.128 1.76 0.224 2.56 0.224 0.16 0 0.288 0 0.448-0.032 0.454 0.677 1.215 1.117 2.080 1.12h0c0.001 0 0.001 0 0.002 0 1.342 0 2.43-1.088 2.43-2.43 0-0.001 0-0.001 0-0.002v0c0-0.128 0-0.224-0.032-0.352 0.192-0.192 0.384-0.416 0.512-0.672 1.216-2.080 0.288-5.024-2.112-8 2.4-2.976 3.328-5.92 2.112-8zM22.848 10.784c-0.672-0.448-1.344-0.896-2.080-1.312s-1.472-0.8-2.208-1.152c1.184-0.448 2.336-0.8 3.456-1.024 0.352 1.056 0.608 2.24 0.832 3.488zM21.6 6.112c-1.472 0.32-3.040 0.832-4.608 1.504-1.568-0.672-3.104-1.184-4.608-1.504 0.16-0.416 0.32-0.768 0.512-1.12 0.224 0.064 0.48 0.128 0.768 0.128 1.344 0 2.432-1.088 2.432-2.464 0-0.384-0.096-0.768-0.288-1.12 0.384-0.16 0.8-0.288 1.184-0.288 1.792 0 3.456 1.888 4.608 4.864zM11.968 7.296c1.362 0.305 2.517 0.657 3.635 1.084l-0.179-0.060c-0.736 0.352-1.472 0.736-2.208 1.152-0.704 0.416-1.408 0.864-2.080 1.312 0.224-1.248 0.512-2.4 0.832-3.488zM4.224 8.64c0.64-1.12 2.208-1.76 4.384-1.76 0.64 0 1.376 0.064 2.112 0.192-0.448 1.408-0.768 3.008-0.992 4.736-1.338 0.996-2.52 2.046-3.605 3.188l-0.011 0.012c-1.984-2.464-2.784-4.832-1.888-6.368zM9.568 18.464c-0.956-0.777-1.813-1.583-2.608-2.447l-0.016-0.017c0.811-0.881 1.668-1.687 2.579-2.429l0.045-0.035c-0.064 0.8-0.096 1.632-0.096 2.464s0.032 1.664 0.096 2.464zM8.608 25.12c-2.176 0-3.744-0.64-4.384-1.76-0.032-0.032-0.032-0.096-0.064-0.128 0.8-0.416 1.376-1.216 1.376-2.176 0-0.768-0.352-1.408-0.864-1.856 0.352-0.736 0.832-1.472 1.44-2.24 1.024 1.12 2.24 2.208 3.616 3.232 0.224 1.728 0.544 3.328 0.992 4.736-0.736 0.128-1.472 0.192-2.112 0.192zM11.136 21.216c0.672 0.448 1.376 0.896 2.080 1.312 0.736 0.416 1.472 0.8 2.208 1.152-0.939 0.367-2.094 0.719-3.281 0.99l-0.175 0.034c-0.295-0.926-0.583-2.099-0.803-3.297l-0.029-0.191zM16.992 30.752c-1.792 0-3.424-1.888-4.608-4.864 1.472-0.32 3.040-0.832 4.608-1.504 1.568 0.672 3.136 1.184 4.608 1.504-1.152 2.976-2.816 4.864-4.608 4.864zM22.016 24.704c-1.362-0.305-2.517-0.657-3.635-1.084l0.179 0.060c0.736-0.352 1.472-0.736 2.208-1.152s1.408-0.864 2.080-1.312c-0.224 1.248-0.48 2.432-0.832 3.488zM23.072 19.52c-0.833 0.616-1.794 1.251-2.788 1.835l-0.156 0.085c-1.024 0.608-2.080 1.12-3.136 1.6-1.056-0.48-2.080-0.992-3.136-1.6s-2.016-1.248-2.944-1.92c-0.128-1.152-0.192-2.304-0.192-3.52s0.064-2.368 0.192-3.52c0.928-0.672 1.888-1.312 2.944-1.92s2.080-1.12 3.136-1.6c1.056 0.48 2.112 0.992 3.136 1.6 1.15 0.669 2.111 1.304 3.036 1.985l-0.092-0.065c0.128 1.152 0.192 2.304 0.192 3.52s-0.064 2.368-0.192 3.52zM25.408 6.88c2.144 0 3.712 0.608 4.352 1.76 0.896 1.536 0.096 3.904-1.888 6.368-1.096-1.154-2.278-2.204-3.543-3.148l-0.073-0.052c-0.196-1.767-0.545-3.372-1.041-4.911l0.049 0.175c0.736-0.096 1.472-0.192 2.144-0.192zM24.416 13.536c0.956 0.777 1.813 1.583 2.608 2.447l0.016 0.017c-0.811 0.881-1.668 1.687-2.579 2.429l-0.045 0.035c0.064-0.8 0.096-1.632 0.096-2.464s-0.032-1.664-0.096-2.464zM29.76 23.36v0.032c-0.451-0.511-1.108-0.832-1.839-0.832-1.353 0-2.449 1.096-2.449 2.449 0 0.005 0 0.010 0 0.016v-0.001 0.096h-0.064c-0.672 0-1.376-0.064-2.112-0.192 0.419-1.353 0.757-2.958 0.948-4.608l0.012-0.128c1.338-0.996 2.52-2.046 3.605-3.188l0.011-0.012c1.984 2.464 2.784 4.832 1.888 6.368zM16.992 13.024c-1.632 0-2.976 1.312-2.976 2.976s1.344 2.976 2.976 2.976c0.002 0 0.004 0 0.006 0 1.64 0 2.97-1.33 2.97-2.97 0-0.002 0-0.004 0-0.006v0c-0.008-1.64-1.336-2.968-2.975-2.976h-0.001z"></path></svg>